<svg width="233" height="89" viewBox="0 0 233 89" fill="none" xmlns="http://www.w3.org/2000/svg">
<circle cx="8.83705" cy="72.4386" r="8.83705" fill="#00FFB2"/>
<path d="M33.4397 22.4697H20.526L42.8993 88.4364H56.9691L33.4397 22.4697Z" fill="#0F1A1B"/>
<path d="M74.267 45.6975C74.267 43.628 74.6909 41.7954 75.5386 40.1997C76.4113 38.6039 77.5831 37.3697 79.0542 36.497C80.5502 35.5994 82.1958 35.1506 83.991 35.1506C85.6117 35.1506 87.0204 35.4748 88.2172 36.123C89.439 36.7464 90.4114 37.5318 91.1345 38.4792V35.4872H95.4355V56.0947H91.1345V53.0279C90.4114 54.0003 89.4265 54.8107 88.1798 55.4589C86.9332 56.1072 85.512 56.4313 83.9162 56.4313C82.146 56.4313 80.5253 55.9825 79.0542 55.0849C77.5831 54.1624 76.4113 52.8908 75.5386 51.2701C74.6909 49.6245 74.267 47.767 74.267 45.6975ZM91.1345 45.7723C91.1345 44.3511 90.8353 43.1169 90.2369 42.0697C89.6634 41.0225 88.9029 40.2246 87.9554 39.6761C87.008 39.1275 85.9857 38.8532 84.8886 38.8532C83.7916 38.8532 82.7693 39.1275 81.8218 39.6761C80.8743 40.1997 80.1014 40.9851 79.503 42.0323C78.9295 43.0545 78.6428 44.2763 78.6428 45.6975C78.6428 47.1187 78.9295 48.3654 79.503 49.4375C80.1014 50.5096 80.8743 51.3324 81.8218 51.9059C82.7942 52.4544 83.8165 52.7287 84.8886 52.7287C85.9857 52.7287 87.008 52.4544 87.9554 51.9059C88.9029 51.3574 89.6634 50.5595 90.2369 49.5123C90.8353 48.4402 91.1345 47.1935 91.1345 45.7723ZM105.299 38.5166C106.022 37.5692 107.007 36.7713 108.254 36.123C109.5 35.4748 110.909 35.1506 112.48 35.1506C114.275 35.1506 115.908 35.5994 117.379 36.497C118.875 37.3697 120.047 38.6039 120.895 40.1997C121.743 41.7954 122.167 43.628 122.167 45.6975C122.167 47.767 121.743 49.6245 120.895 51.2701C120.047 52.8908 118.875 54.1624 117.379 55.0849C115.908 55.9825 114.275 56.4313 112.48 56.4313C110.909 56.4313 109.513 56.1197 108.291 55.4963C107.069 54.8481 106.072 54.0502 105.299 53.1027V65.8936H101.036V35.4872H105.299V38.5166ZM117.828 45.6975C117.828 44.2763 117.529 43.0545 116.931 42.0323C116.357 40.9851 115.584 40.1997 114.612 39.6761C113.664 39.1275 112.642 38.8532 111.545 38.8532C110.473 38.8532 109.451 39.1275 108.478 39.6761C107.531 40.2246 106.758 41.0225 106.159 42.0697C105.586 43.1169 105.299 44.3511 105.299 45.7723C105.299 47.1935 105.586 48.4402 106.159 49.5123C106.758 50.5595 107.531 51.3574 108.478 51.9059C109.451 52.4544 110.473 52.7287 111.545 52.7287C112.642 52.7287 113.664 52.4544 114.612 51.9059C115.584 51.3324 116.357 50.5096 116.931 49.4375C117.529 48.3654 117.828 47.1187 117.828 45.6975ZM136.78 35.1506C138.401 35.1506 139.847 35.4872 141.119 36.1604C142.415 36.8336 143.425 37.831 144.148 39.1525C144.871 40.4739 145.233 42.0697 145.233 43.9397V56.0947H141.006V44.5755C141.006 42.7304 140.545 41.3217 139.623 40.3493C138.7 39.3519 137.441 38.8532 135.845 38.8532C134.249 38.8532 132.978 39.3519 132.03 40.3493C131.108 41.3217 130.647 42.7304 130.647 44.5755V56.0947H126.383V35.4872H130.647V37.8434C131.345 36.9957 132.23 36.335 133.302 35.8612C134.399 35.3875 135.558 35.1506 136.78 35.1506ZM152.84 32.757C152.067 32.757 151.419 32.4952 150.896 31.9716C150.372 31.448 150.11 30.7997 150.11 30.0268C150.11 29.2539 150.372 28.6056 150.896 28.082C151.419 27.5584 152.067 27.2966 152.84 27.2966C153.588 27.2966 154.224 27.5584 154.748 28.082C155.271 28.6056 155.533 29.2539 155.533 30.0268C155.533 30.7997 155.271 31.448 154.748 31.9716C154.224 32.4952 153.588 32.757 152.84 32.757ZM154.935 35.4872V56.0947H150.671V35.4872H154.935ZM177.728 56.4313C176.107 56.4313 174.649 56.1446 173.352 55.5711C172.08 54.9727 171.071 54.1749 170.323 53.1775C169.575 52.1552 169.176 51.0208 169.126 49.7741H173.539C173.614 50.6468 174.025 51.3823 174.773 51.9807C175.546 52.5542 176.506 52.8409 177.653 52.8409C178.85 52.8409 179.772 52.6165 180.421 52.1677C181.094 51.694 181.43 51.0956 181.43 50.3725C181.43 49.5996 181.056 49.0261 180.308 48.6521C179.585 48.2781 178.426 47.8667 176.83 47.4179C175.284 46.994 174.025 46.5826 173.053 46.1837C172.08 45.7847 171.233 45.1739 170.51 44.3511C169.811 43.5283 169.462 42.4437 169.462 41.0973C169.462 40.0002 169.787 39.0028 170.435 38.1052C171.083 37.1827 172.006 36.4596 173.202 35.936C174.424 35.4124 175.82 35.1506 177.391 35.1506C179.735 35.1506 181.617 35.749 183.039 36.9458C184.485 38.1177 185.258 39.7259 185.357 41.7705H181.094C181.019 40.8479 180.645 40.1124 179.972 39.5639C179.299 39.0153 178.389 38.741 177.242 38.741C176.12 38.741 175.259 38.953 174.661 39.3769C174.063 39.8007 173.763 40.3617 173.763 41.0599C173.763 41.6084 173.963 42.0697 174.362 42.4437C174.761 42.8177 175.247 43.1169 175.82 43.3413C176.394 43.5407 177.242 43.8025 178.364 44.1267C179.86 44.5256 181.081 44.937 182.029 45.3609C183.001 45.7598 183.837 46.3582 184.535 47.1561C185.233 47.954 185.594 49.0136 185.619 50.3351C185.619 51.507 185.295 52.5542 184.647 53.4767C183.999 54.3993 183.076 55.1223 181.879 55.6459C180.707 56.1695 179.324 56.4313 177.728 56.4313ZM209.113 45.2861C209.113 46.059 209.063 46.7572 208.964 47.3805H193.218C193.343 49.0261 193.954 50.3476 195.051 51.3449C196.148 52.3422 197.494 52.8409 199.09 52.8409C201.384 52.8409 203.005 51.881 203.952 49.9611H208.552C207.929 51.856 206.794 53.4144 205.149 54.6361C203.528 55.8329 201.509 56.4313 199.09 56.4313C197.12 56.4313 195.35 55.995 193.779 55.1223C192.233 54.2247 191.012 52.978 190.114 51.3823C189.241 49.7616 188.805 47.8916 188.805 45.7723C188.805 43.6529 189.229 41.7954 190.077 40.1997C190.949 38.579 192.159 37.3323 193.704 36.4596C195.275 35.587 197.07 35.1506 199.09 35.1506C201.035 35.1506 202.768 35.5745 204.289 36.4222C205.81 37.27 206.994 38.4668 207.842 40.0127C208.689 41.5336 209.113 43.2914 209.113 45.2861ZM204.663 43.9397C204.638 42.3689 204.077 41.1097 202.98 40.1623C201.883 39.2148 200.524 38.741 198.903 38.741C197.432 38.741 196.173 39.2148 195.126 40.1623C194.078 41.0848 193.455 42.3439 193.256 43.9397H204.663ZM211.888 45.7723C211.888 43.6529 212.312 41.7954 213.16 40.1997C214.032 38.579 215.229 37.3323 216.75 36.4596C218.271 35.587 220.016 35.1506 221.986 35.1506C224.479 35.1506 226.536 35.749 228.157 36.9458C229.803 38.1177 230.912 39.8007 231.486 41.9949H226.885C226.511 40.9726 225.913 40.1747 225.09 39.6013C224.267 39.0278 223.233 38.741 221.986 38.741C220.241 38.741 218.844 39.3644 217.797 40.6111C216.775 41.8328 216.264 43.5532 216.264 45.7723C216.264 47.9914 216.775 49.7242 217.797 50.9709C218.844 52.2176 220.241 52.8409 221.986 52.8409C224.454 52.8409 226.088 51.7563 226.885 49.5871H231.486C230.887 51.6815 229.765 53.352 228.12 54.5987C226.474 55.8205 224.429 56.4313 221.986 56.4313C220.016 56.4313 218.271 55.995 216.75 55.1223C215.229 54.2247 214.032 52.978 213.16 51.3823C212.312 49.7616 211.888 47.8916 211.888 45.7723Z" fill="#0F1A1B"/>
<path d="M77.3999 84.3231C76.6884 84.3231 76.0593 84.1994 75.5128 83.9519C74.9765 83.7044 74.5537 83.3589 74.2444 82.9155C73.935 82.4721 73.77 81.9771 73.7494 81.4306H74.8941C74.9456 81.9565 75.1776 82.4205 75.5901 82.8227C76.0026 83.2146 76.6059 83.4105 77.3999 83.4105C78.1321 83.4105 78.7096 83.2249 79.1324 82.8536C79.5655 82.4721 79.782 81.9926 79.782 81.4151C79.782 80.951 79.6634 80.5798 79.4262 80.3014C79.1891 80.0126 78.8952 79.8012 78.5446 79.6672C78.1939 79.5228 77.7093 79.3681 77.0905 79.2031C76.3687 79.0072 75.7964 78.8164 75.3736 78.6308C74.9508 78.4452 74.5898 78.1564 74.2908 77.7646C73.9917 77.3727 73.8422 76.8416 73.8422 76.1714C73.8422 75.6145 73.9866 75.1195 74.2753 74.6864C74.5641 74.243 74.9714 73.8975 75.4973 73.65C76.0232 73.4025 76.6265 73.2788 77.3071 73.2788C78.3074 73.2788 79.1117 73.5263 79.7201 74.0213C80.3389 74.5059 80.6946 75.135 80.7875 75.9084H79.6119C79.5397 75.465 79.2973 75.0731 78.8849 74.7328C78.4724 74.3822 77.9155 74.2069 77.2143 74.2069C76.5646 74.2069 76.0232 74.3822 75.5901 74.7328C75.157 75.0731 74.9405 75.5423 74.9405 76.1404C74.9405 76.5942 75.059 76.9602 75.2962 77.2387C75.5334 77.5171 75.8273 77.7285 76.1779 77.8729C76.5388 78.0172 77.0235 78.1719 77.6319 78.3369C78.3332 78.5328 78.9003 78.7288 79.3334 78.9247C79.7665 79.1103 80.1326 79.3991 80.4317 79.7909C80.7307 80.1828 80.8803 80.7087 80.8803 81.3687C80.8803 81.874 80.7462 82.3535 80.4781 82.8072C80.21 83.261 79.813 83.6271 79.287 83.9055C78.7611 84.1839 78.1321 84.3231 77.3999 84.3231ZM84.0554 74.2842V78.3214H88.1544V79.2186H84.0554V83.3177H88.6185V84.2148H82.9726V73.3871H88.6185V74.2842H84.0554ZM90.257 78.801C90.257 77.7388 90.4891 76.7901 90.9531 75.9548C91.4172 75.1092 92.0514 74.4544 92.8557 73.9903C93.6601 73.516 94.5572 73.2788 95.5472 73.2788C96.7537 73.2788 97.7849 73.5675 98.6408 74.145C99.5071 74.7122 100.136 75.5165 100.528 76.5581H99.2596C98.9502 75.8259 98.4758 75.2536 97.8365 74.8411C97.2074 74.4286 96.4443 74.2224 95.5472 74.2224C94.7531 74.2224 94.0364 74.408 93.3971 74.7792C92.7681 75.1505 92.2731 75.6867 91.9121 76.3879C91.5512 77.0788 91.3708 77.8832 91.3708 78.801C91.3708 79.7187 91.5512 80.5231 91.9121 81.214C92.2731 81.9049 92.7681 82.436 93.3971 82.8072C94.0364 83.1785 94.7531 83.3641 95.5472 83.3641C96.4443 83.3641 97.2074 83.163 97.8365 82.7608C98.4758 82.3483 98.9502 81.7812 99.2596 81.0593H100.528C100.136 82.0905 99.5071 82.8897 98.6408 83.4569C97.7746 84.0241 96.7434 84.3077 95.5472 84.3077C94.5572 84.3077 93.6601 84.0756 92.8557 83.6116C92.0514 83.1372 91.4172 82.4824 90.9531 81.6471C90.4891 80.8118 90.257 79.8631 90.257 78.801ZM110.002 75.7692V84.2148H108.919V82.7299C108.672 83.2558 108.29 83.658 107.775 83.9364C107.259 84.2148 106.681 84.3541 106.042 84.3541C105.032 84.3541 104.207 84.0447 103.567 83.426C102.928 82.7969 102.608 81.8895 102.608 80.7036V75.7692H103.676V80.5798C103.676 81.4976 103.902 82.1988 104.356 82.6835C104.82 83.1682 105.449 83.4105 106.243 83.4105C107.058 83.4105 107.708 83.1527 108.192 82.6371C108.677 82.1215 108.919 81.3635 108.919 80.3633V75.7692H110.002ZM113.557 77.2696C113.794 76.7437 114.155 76.3364 114.64 76.0476C115.135 75.7589 115.738 75.6145 116.449 75.6145V76.7437H116.155C115.372 76.7437 114.743 76.9551 114.268 77.3779C113.794 77.8007 113.557 78.5071 113.557 79.497V84.2148H112.474V75.7692H113.557V77.2696ZM118.62 74.176C118.403 74.176 118.217 74.0986 118.063 73.9439C117.908 73.7892 117.831 73.5985 117.831 73.3716C117.831 73.1447 117.908 72.9591 118.063 72.8147C118.217 72.6601 118.403 72.5827 118.62 72.5827C118.836 72.5827 119.022 72.6601 119.176 72.8147C119.331 72.9591 119.409 73.1447 119.409 73.3716C119.409 73.5985 119.331 73.7892 119.176 73.9439C119.022 74.0986 118.836 74.176 118.62 74.176ZM119.161 75.7692V84.2148H118.078V75.7692H119.161ZM123.021 76.6818V81.9255C123.021 82.4412 123.119 82.7969 123.314 82.9929C123.51 83.1888 123.856 83.2867 124.351 83.2867H125.341V84.2148H124.181C123.418 84.2148 122.85 84.0395 122.479 83.6889C122.108 83.328 121.922 82.7402 121.922 81.9255V76.6818H120.747V75.7692H121.922V73.65H123.021V75.7692H125.341V76.6818H123.021ZM134.087 75.7692L129.076 88.1902H127.946L129.586 84.1684L126.121 75.7692H127.312L130.189 82.9774L132.974 75.7692H134.087ZM139.305 79.9765C139.305 79.1103 139.475 78.3524 139.816 77.7027C140.166 77.0427 140.646 76.5374 141.254 76.1868C141.873 75.8259 142.569 75.6454 143.342 75.6454C144.147 75.6454 144.838 75.8311 145.415 76.2023C146.003 76.5735 146.426 77.0479 146.684 77.6254V75.7692H147.766V84.2148H146.684V82.3432C146.416 82.9207 145.988 83.4002 145.4 83.7817C144.822 84.153 144.131 84.3386 143.327 84.3386C142.564 84.3386 141.873 84.1581 141.254 83.7972C140.646 83.4363 140.166 82.9258 139.816 82.2658C139.475 81.6059 139.305 80.8428 139.305 79.9765ZM146.684 79.992C146.684 79.3114 146.544 78.7133 146.266 78.1977C145.988 77.6821 145.606 77.2851 145.121 77.0066C144.647 76.7282 144.121 76.589 143.544 76.589C142.945 76.589 142.409 76.7231 141.935 76.9912C141.461 77.2593 141.084 77.6512 140.806 78.1668C140.538 78.6721 140.404 79.2753 140.404 79.9765C140.404 80.6675 140.538 81.2759 140.806 81.8018C141.084 82.3174 141.461 82.7144 141.935 82.9929C142.409 83.261 142.945 83.395 143.544 83.395C144.121 83.395 144.647 83.2558 145.121 82.9774C145.606 82.699 145.988 82.3019 146.266 81.7863C146.544 81.2707 146.684 80.6726 146.684 79.992ZM153.146 84.3386C152.177 84.3386 151.383 84.1169 150.764 83.6735C150.156 83.2197 149.816 82.6061 149.743 81.8327H150.857C150.909 82.3071 151.13 82.6938 151.522 82.9929C151.924 83.2816 152.461 83.426 153.131 83.426C153.719 83.426 154.178 83.2867 154.508 83.0083C154.848 82.7299 155.018 82.3844 155.018 81.9719C155.018 81.6832 154.925 81.446 154.74 81.2604C154.554 81.0748 154.317 80.9304 154.028 80.8273C153.75 80.7139 153.368 80.5953 152.883 80.4715C152.254 80.3065 151.744 80.1415 151.352 79.9765C150.96 79.8115 150.625 79.5692 150.347 79.2495C150.078 78.9195 149.944 78.4813 149.944 77.9347C149.944 77.5222 150.068 77.1407 150.316 76.7901C150.563 76.4395 150.914 76.161 151.367 75.9548C151.821 75.7486 152.337 75.6454 152.914 75.6454C153.822 75.6454 154.554 75.8775 155.111 76.3415C155.668 76.7952 155.967 77.4243 156.008 78.2286H154.925C154.894 77.7336 154.698 77.3366 154.337 77.0376C153.987 76.7282 153.502 76.5735 152.883 76.5735C152.337 76.5735 151.893 76.7024 151.553 76.9602C151.213 77.218 151.043 77.5377 151.043 77.9193C151.043 78.2493 151.141 78.5225 151.337 78.7391C151.543 78.9453 151.795 79.1103 152.094 79.2341C152.394 79.3475 152.796 79.4764 153.301 79.6208C153.909 79.7858 154.394 79.9456 154.755 80.1003C155.116 80.255 155.425 80.4818 155.683 80.7809C155.941 81.0799 156.075 81.477 156.085 81.9719C156.085 82.4257 155.962 82.833 155.714 83.1939C155.467 83.5446 155.121 83.823 154.678 84.0292C154.234 84.2355 153.724 84.3386 153.146 84.3386ZM161.873 79.9765C161.873 79.1103 162.043 78.3524 162.384 77.7027C162.734 77.0427 163.214 76.5374 163.822 76.1868C164.441 75.8259 165.137 75.6454 165.91 75.6454C166.715 75.6454 167.406 75.8311 167.983 76.2023C168.571 76.5735 168.994 77.0479 169.252 77.6254V75.7692H170.334V84.2148H169.252V82.3432C168.983 82.9207 168.555 83.4002 167.968 83.7817C167.39 84.153 166.699 84.3386 165.895 84.3386C165.132 84.3386 164.441 84.1581 163.822 83.7972C163.214 83.4363 162.734 82.9258 162.384 82.2658C162.043 81.6059 161.873 80.8428 161.873 79.9765ZM169.252 79.992C169.252 79.3114 169.112 78.7133 168.834 78.1977C168.555 77.6821 168.174 77.2851 167.689 77.0066C167.215 76.7282 166.689 76.589 166.112 76.589C165.513 76.589 164.977 76.7231 164.503 76.9912C164.028 77.2593 163.652 77.6512 163.374 78.1668C163.106 78.6721 162.971 79.2753 162.971 79.9765C162.971 80.6675 163.106 81.2759 163.374 81.8018C163.652 82.3174 164.028 82.7144 164.503 82.9929C164.977 83.261 165.513 83.395 166.112 83.395C166.689 83.395 167.215 83.2558 167.689 82.9774C168.174 82.699 168.555 82.3019 168.834 81.7863C169.112 81.2707 169.252 80.6726 169.252 79.992ZM180.33 84.3231C179.619 84.3231 178.99 84.1994 178.443 83.9519C177.907 83.7044 177.484 83.3589 177.175 82.9155C176.865 82.4721 176.7 81.9771 176.68 81.4306H177.824C177.876 81.9565 178.108 82.4205 178.52 82.8227C178.933 83.2146 179.536 83.4105 180.33 83.4105C181.062 83.4105 181.64 83.2249 182.063 82.8536C182.496 82.4721 182.712 81.9926 182.712 81.4151C182.712 80.951 182.594 80.5798 182.357 80.3014C182.119 80.0126 181.825 79.8012 181.475 79.6672C181.124 79.5228 180.64 79.3681 180.021 79.2031C179.299 79.0072 178.727 78.8164 178.304 78.6308C177.881 78.4452 177.52 78.1564 177.221 77.7646C176.922 77.3727 176.773 76.8416 176.773 76.1714C176.773 75.6145 176.917 75.1195 177.206 74.6864C177.494 74.243 177.902 73.8975 178.428 73.65C178.954 73.4025 179.557 73.2788 180.237 73.2788C181.238 73.2788 182.042 73.5263 182.65 74.0213C183.269 74.5059 183.625 75.135 183.718 75.9084H182.542C182.47 75.465 182.228 75.0731 181.815 74.7328C181.403 74.3822 180.846 74.2069 180.145 74.2069C179.495 74.2069 178.954 74.3822 178.52 74.7328C178.087 75.0731 177.871 75.5423 177.871 76.1404C177.871 76.5942 177.989 76.9602 178.227 77.2387C178.464 77.5171 178.758 77.7285 179.108 77.8729C179.469 78.0172 179.954 78.1719 180.562 78.3369C181.263 78.5328 181.831 78.7288 182.264 78.9247C182.697 79.1103 183.063 79.3991 183.362 79.7909C183.661 80.1828 183.811 80.7087 183.811 81.3687C183.811 81.874 183.677 82.3535 183.408 82.8072C183.14 83.261 182.743 83.6271 182.217 83.9055C181.691 84.1839 181.062 84.3231 180.33 84.3231ZM193.544 79.5589C193.544 79.9301 193.534 80.2137 193.513 80.4097H186.506C186.537 81.049 186.692 81.5956 186.97 82.0493C187.249 82.503 187.615 82.8485 188.068 83.0857C188.522 83.3125 189.017 83.426 189.553 83.426C190.255 83.426 190.842 83.2558 191.317 82.9155C191.801 82.5752 192.121 82.1163 192.276 81.5388H193.42C193.214 82.3638 192.771 83.0393 192.09 83.5652C191.42 84.0808 190.574 84.3386 189.553 84.3386C188.759 84.3386 188.048 84.1633 187.419 83.8127C186.79 83.4517 186.295 82.9464 185.934 82.2968C185.583 81.6368 185.408 80.8685 185.408 79.992C185.408 79.1155 185.583 78.3472 185.934 77.6872C186.284 77.0273 186.774 76.522 187.403 76.1714C188.032 75.8207 188.749 75.6454 189.553 75.6454C190.358 75.6454 191.059 75.8207 191.657 76.1714C192.265 76.522 192.73 76.9963 193.049 77.5944C193.379 78.1822 193.544 78.8371 193.544 79.5589ZM192.446 79.528C192.456 78.8989 192.327 78.3627 192.059 77.9193C191.801 77.4758 191.446 77.1407 190.992 76.9138C190.538 76.687 190.043 76.5735 189.507 76.5735C188.703 76.5735 188.017 76.8313 187.45 77.3469C186.883 77.8626 186.568 78.5896 186.506 79.528H192.446ZM196.608 77.2696C196.845 76.7437 197.206 76.3364 197.691 76.0476C198.186 75.7589 198.789 75.6145 199.501 75.6145V76.7437H199.207C198.423 76.7437 197.794 76.9551 197.32 77.3779C196.845 77.8007 196.608 78.5071 196.608 79.497V84.2148H195.525V75.7692H196.608V77.2696ZM204.13 83.163L206.976 75.7692H208.121L204.734 84.2148H203.512L200.124 75.7692H201.284L204.13 83.163ZM210.13 74.176C209.913 74.176 209.728 74.0986 209.573 73.9439C209.418 73.7892 209.341 73.5985 209.341 73.3716C209.341 73.1447 209.418 72.9591 209.573 72.8147C209.728 72.6601 209.913 72.5827 210.13 72.5827C210.347 72.5827 210.532 72.6601 210.687 72.8147C210.842 72.9591 210.919 73.1447 210.919 73.3716C210.919 73.5985 210.842 73.7892 210.687 73.9439C210.532 74.0986 210.347 74.176 210.13 74.176ZM210.671 75.7692V84.2148H209.589V75.7692H210.671ZM212.628 79.992C212.628 79.1155 212.804 78.3524 213.154 77.7027C213.505 77.0427 213.99 76.5374 214.608 76.1868C215.227 75.8259 215.933 75.6454 216.727 75.6454C217.769 75.6454 218.625 75.9032 219.295 76.4188C219.976 76.9345 220.414 77.6357 220.61 78.5225H219.45C219.306 77.9141 218.991 77.4398 218.506 77.0995C218.032 76.7488 217.439 76.5735 216.727 76.5735C216.16 76.5735 215.65 76.7024 215.196 76.9602C214.742 77.218 214.381 77.6047 214.113 78.1204C213.856 78.6257 213.727 79.2495 213.727 79.992C213.727 80.7345 213.856 81.3635 214.113 81.8791C214.381 82.3947 214.742 82.7815 215.196 83.0393C215.65 83.2971 216.16 83.426 216.727 83.426C217.439 83.426 218.032 83.2558 218.506 82.9155C218.991 82.5649 219.306 82.0802 219.45 81.4615H220.61C220.414 82.3277 219.976 83.0238 219.295 83.5497C218.615 84.0756 217.759 84.3386 216.727 84.3386C215.933 84.3386 215.227 84.1633 214.608 83.8127C213.99 83.4517 213.505 82.9464 213.154 82.2968C212.804 81.6368 212.628 80.8685 212.628 79.992ZM230.251 79.5589C230.251 79.9301 230.241 80.2137 230.22 80.4097H223.213C223.244 81.049 223.399 81.5956 223.677 82.0493C223.955 82.503 224.322 82.8485 224.775 83.0857C225.229 83.3125 225.724 83.426 226.26 83.426C226.961 83.426 227.549 83.2558 228.024 82.9155C228.508 82.5752 228.828 82.1163 228.983 81.5388H230.127C229.921 82.3638 229.478 83.0393 228.797 83.5652C228.127 84.0808 227.281 84.3386 226.26 84.3386C225.466 84.3386 224.755 84.1633 224.126 83.8127C223.497 83.4517 223.002 82.9464 222.641 82.2968C222.29 81.6368 222.115 80.8685 222.115 79.992C222.115 79.1155 222.29 78.3472 222.641 77.6872C222.991 77.0273 223.481 76.522 224.11 76.1714C224.739 75.8207 225.456 75.6454 226.26 75.6454C227.065 75.6454 227.766 75.8207 228.364 76.1714C228.972 76.522 229.436 76.9963 229.756 77.5944C230.086 78.1822 230.251 78.8371 230.251 79.5589ZM229.153 79.528C229.163 78.8989 229.034 78.3627 228.766 77.9193C228.508 77.4758 228.153 77.1407 227.699 76.9138C227.245 76.687 226.75 76.5735 226.214 76.5735C225.41 76.5735 224.724 76.8313 224.157 77.3469C223.589 77.8626 223.275 78.5896 223.213 79.528H229.153Z" fill="#0F1A1B"/>
</svg>
